<?xml version="1.0" encoding="UTF-8"?>
<svg id="Capa_1" xmlns="http://www.w3.org/2000/svg" version="1.1" viewBox="0 0 283.46 283.46">
  <!-- Generator: Adobe Illustrator 30.2.1, SVG Export Plug-In . SVG Version: 2.1.1 Build 1)  -->
  <defs>
    <style>
      .st0 {
        fill: #f08219;
      }
    </style>
  </defs>
  <path class="st0" d="M158.39,156.4h-4.31v-55.79h4.31v55.79ZM143.76,117.58h-4.31v-10.26c0-1.5-1.21-2.71-2.71-2.71-1.32,0-2.48.11-3.44.33-.9.21-1.65.56-2.23,1.05-.57.48-.98,1.12-1.25,1.97-.29.89-.44,2.04-.44,3.42v36.56c0,.77.13,1.48.38,2.1.25.64.6,1.19,1.04,1.66.43.46.94.83,1.54,1.08,1.24.54,2.93.51,4.11-.02.62-.27,1.15-.65,1.6-1.11.44-.47.79-1.02,1.03-1.64.24-.63.37-1.33.37-2.08v-17.2h-4.96v-4h9.27v21.24c0,1.34-.25,2.59-.74,3.71-.49,1.12-1.16,2.1-2.01,2.91-.84.82-1.85,1.46-2.98,1.9-1.13.45-2.35.67-3.63.67s-2.59-.24-3.72-.72c-1.13-.47-2.13-1.13-2.95-1.94-.83-.82-1.49-1.8-1.95-2.92-.46-1.12-.7-2.34-.7-3.62v-35.31c0-.87.02-1.76.06-2.69.04-.95.16-1.87.35-2.74.2-.9.52-1.75.97-2.55.46-.82,1.11-1.55,1.92-2.16.81-.61,1.85-1.09,3.09-1.43,1.21-.33,2.71-.49,4.46-.49h1.35c3.58,0,6.49,2.91,6.49,6.49v10.48ZM215.67,91.18l-147.94-12.37c-15.57-1.3-27.24,13.97-21.9,28.66l13.86,38.06c5.2,14.29,18.24,24.26,33.4,25.53l95.74,8.02-.07.39c-1.69,9.2-5.55,17.86-11.25,25.28l.06-.03c11.92-4.61,21.91-13.16,28.3-24.23l29.65-51.35c9.3-16.1-1.32-36.4-19.85-37.95"/>
</svg>