<?xml version="1.0" encoding="UTF-8"?>
<svg id="Capa_1" xmlns="http://www.w3.org/2000/svg" version="1.1" viewBox="0 0 283.46 283.46">
  <!-- Generator: Adobe Illustrator 30.2.1, SVG Export Plug-In . SVG Version: 2.1.1 Build 1)  -->
  <defs>
    <style>
      .st0 {
        fill: #fff;
      }
    </style>
  </defs>
  <path class="st0" d="M145.09,125.82h-2.47v-31.9h2.47v31.9ZM136.73,103.62h-2.47v-5.87c0-.85-.69-1.55-1.55-1.55-.75,0-1.42.06-1.97.19-.51.12-.94.32-1.27.6-.33.27-.56.64-.72,1.13-.17.51-.25,1.17-.25,1.96v20.9c0,.44.07.84.22,1.2.15.36.34.68.59.95.24.26.54.47.88.62.71.31,1.68.29,2.35,0,.35-.16.66-.37.91-.64.25-.27.45-.58.59-.94.14-.36.21-.76.21-1.19v-9.83h-2.84v-2.29h5.3v12.14c0,.77-.14,1.48-.42,2.12-.28.64-.67,1.2-1.15,1.67-.48.47-1.06.83-1.7,1.09-.65.26-1.34.38-2.08.38s-1.48-.14-2.13-.41c-.65-.27-1.22-.65-1.69-1.11-.47-.47-.85-1.03-1.12-1.67-.26-.64-.4-1.34-.4-2.07v-20.19c0-.5.01-1.01.03-1.54.02-.54.09-1.07.2-1.56.11-.51.3-1,.55-1.46.26-.47.63-.88,1.1-1.24.46-.35,1.06-.62,1.77-.82.69-.19,1.55-.28,2.55-.28h.77c2.05,0,3.71,1.66,3.71,3.71v5.99ZM177.84,88.53l-84.58-7.07c-8.9-.74-15.58,7.99-12.52,16.38l7.92,21.76c2.98,8.17,10.43,13.87,19.1,14.59l54.74,4.58-.04.22c-.97,5.26-3.17,10.21-6.43,14.45h.04c6.82-2.65,12.52-7.54,16.18-13.87l16.95-29.36c5.31-9.21-.76-20.81-11.35-21.7"/>
  <path class="st0" d="M223.21,194.33h2.29v2.29c0,.94.26,1.73.78,2.37.52.64,1.27.96,2.24.96s1.69-.32,2.21-.96c.52-.64.78-1.43.78-2.37v-3.85c0-.67-.11-1.3-.32-1.88-.21-.58-.5-1.14-.85-1.68-.36-.54-.76-1.05-1.22-1.54-.46-.49-.92-.98-1.39-1.47-.57-.57-1.13-1.15-1.66-1.74-.54-.59-1.02-1.22-1.45-1.88-.43-.66-.77-1.36-1.02-2.09-.25-.73-.38-1.53-.38-2.38v-2.84c0-.81.11-1.56.34-2.24.22-.68.56-1.27,1.01-1.77.45-.5,1-.89,1.66-1.16.66-.27,1.43-.41,2.31-.41s1.61.14,2.28.41c.66.27,1.22.66,1.66,1.16.45.5.78,1.09,1.01,1.77.22.68.34,1.43.34,2.24v2.5h-2.29v-2.69c0-.94-.26-1.73-.78-2.38-.52-.65-1.26-.98-2.21-.98s-1.73.33-2.24.98c-.52.65-.78,1.45-.78,2.38v3.02c0,.69.11,1.34.34,1.94.22.6.51,1.17.87,1.69.36.53.76,1.04,1.22,1.54.46.5.92.99,1.39,1.48.57.59,1.12,1.18,1.66,1.77.54.59,1.02,1.21,1.44,1.86.42.65.75,1.34,1.01,2.06.25.72.38,1.49.38,2.31v3.63c0,.79-.11,1.53-.34,2.21-.22.68-.56,1.27-1.01,1.77-.45.5-1,.89-1.66,1.18-.66.28-1.42.43-2.28.43s-1.64-.14-2.31-.43c-.66-.28-1.22-.68-1.66-1.18-.45-.5-.78-1.09-1.01-1.77-.22-.68-.34-1.42-.34-2.21v-2.08ZM214.79,199.95c.98,0,1.73-.33,2.24-.98.52-.65.78-1.45.78-2.38v-10.78h-3.02c-.96,0-1.69.32-2.21.95-.52.63-.78,1.42-.78,2.38v7.82c0,1.65,1.34,2.99,2.99,2.99M214.79,202c-2.92,0-5.28-2.36-5.28-5.28v-7.36c0-.81.11-1.56.34-2.24.22-.68.56-1.27,1.01-1.77.45-.5,1-.89,1.66-1.16.66-.27,1.42-.41,2.27-.41h3.02v-8.09c0-.94-.26-1.73-.78-2.37-.52-.64-1.27-.96-2.24-.96s-1.69.37-2.21,1.1c-.52.73-.78,1.63-.78,2.69l-2.26.34c0-.87.11-1.69.34-2.44.22-.75.55-1.4.99-1.95.44-.55.99-.98,1.65-1.3.66-.32,1.42-.47,2.27-.47s1.64.14,2.31.43c.66.29,1.22.68,1.66,1.18.45.5.78,1.09,1.01,1.77.22.68.34,1.42.34,2.21v20.52c0,.81-.11,1.56-.34,2.24-.22.68-.56,1.27-1.01,1.77-.45.5-1,.88-1.66,1.16-.66.27-1.43.41-2.31.41M201.23,172.35c-.98,0-1.73.33-2.24.98-.52.65-.78,1.45-.78,2.38v10.78h3.02c.96,0,1.69-.32,2.21-.95.52-.63.78-1.42.78-2.38v-7.82c0-1.65-1.34-2.99-2.99-2.99M201.23,170.3c2.92,0,5.28,2.36,5.28,5.28v7.36c0,.81-.11,1.56-.34,2.24-.22.68-.56,1.27-1.01,1.77-.45.5-1,.89-1.66,1.16-.66.27-1.42.41-2.28.41h-3.02v8.09c0,.94.26,1.73.78,2.37.52.64,1.27.96,2.24.96s1.69-.37,2.21-1.1c.52-.73.78-1.63.78-2.69l2.26-.34c0,.88-.11,1.69-.34,2.44-.22.75-.55,1.4-.99,1.95-.44.55-.99.98-1.65,1.3-.66.32-1.42.47-2.28.47s-1.64-.14-2.3-.43c-.66-.28-1.22-.68-1.66-1.18-.45-.5-.78-1.09-1.01-1.77-.22-.68-.34-1.42-.34-2.21v-20.52c0-.81.11-1.56.34-2.24.22-.68.56-1.27,1.01-1.77.45-.5,1-.89,1.66-1.16.66-.27,1.43-.41,2.3-.41M189.81,175.25c0-.12-.02-.35-.05-.67-.03-.33-.14-.65-.32-.98-.18-.33-.48-.62-.89-.87-.41-.25-.99-.38-1.74-.38-1.67,0-3.02,1.35-3.02,3.02v21.25c0,.94.26,1.73.78,2.37.52.64,1.27.96,2.24.96s1.69-.32,2.21-.96c.52-.64.78-1.43.78-2.37v-21.37ZM192.1,196.41c0,.79-.11,1.53-.34,2.21-.22.68-.56,1.27-1.01,1.77-.45.5-1,.89-1.66,1.18-.66.28-1.42.43-2.27.43s-1.64-.14-2.31-.43c-.66-.28-1.22-.68-1.66-1.18-.45-.5-.78-1.09-1.01-1.77-.22-.68-.34-1.42-.34-2.21v-20.91c0-2.87,2.32-5.19,5.19-5.19.77,0,1.39.06,1.86.17.47.11.89.27,1.25.47v-17.31h2.29v42.78ZM174.48,159.52h2.29v42.53h-2.29v-42.53ZM151.79,196.65c0,.94.26,1.73.78,2.38.52.65,1.27.98,2.24.98s1.69-.37,2.21-1.11c.52-.74.78-1.64.78-2.7v-21.4c0-1.65-1.34-2.99-2.99-2.99-.98,0-1.73.33-2.24.98-.52.65-.78,1.45-.78,2.38v21.49ZM160.1,195.89c0,.9-.11,1.72-.34,2.47-.22.75-.56,1.4-1.01,1.95-.45.55-1,.98-1.66,1.28-.66.31-1.43.46-2.31.46s-1.64-.14-2.31-.41c-.66-.28-1.21-.66-1.65-1.16-.44-.5-.77-1.09-.99-1.77-.22-.68-.34-1.43-.34-2.24v-21.16c0-.79.11-1.53.34-2.21.22-.68.56-1.27,1.01-1.77.45-.5,1-.89,1.66-1.16.66-.27,1.43-.41,2.3-.41,2.92,0,5.28,2.36,5.28,5.28v20.85ZM143.42,175.27c0-.12-.02-.35-.05-.67-.03-.33-.14-.65-.32-.98-.18-.33-.48-.62-.89-.87-.41-.25-.99-.38-1.74-.38-1.67,0-3.02,1.35-3.02,3.02v21.25c0,.94.26,1.73.78,2.37.52.64,1.27.96,2.24.96s1.69-.32,2.21-.96c.52-.64.78-1.43.78-2.37v-21.37ZM145.71,196.43c0,.79-.11,1.53-.34,2.21-.22.68-.56,1.27-1.01,1.77-.45.5-1,.89-1.66,1.18-.66.28-1.42.43-2.27.43s-1.64-.14-2.31-.43c-.66-.28-1.22-.68-1.66-1.18-.45-.5-.78-1.09-1.01-1.77-.22-.68-.34-1.42-.34-2.21v-20.91c0-2.87,2.32-5.19,5.19-5.19.77,0,1.39.06,1.86.17.47.11.89.27,1.25.47v-17.31h2.29v42.78ZM131.16,202.04h-2.29v-25.68c0-.94-.26-1.73-.78-2.38-.52-.65-1.26-.98-2.21-.98h-3.02v29.04h-2.29v-31.08h5.31c.85,0,1.61.14,2.27.41.66.27,1.22.66,1.66,1.16.45.5.78,1.09,1.01,1.77.22.68.34,1.42.34,2.21v25.52ZM111.27,199.98c.98,0,1.73-.33,2.24-.98.52-.65.78-1.45.78-2.38v-10.78h-3.02c-.96,0-1.69.32-2.21.95-.52.63-.78,1.42-.78,2.38v7.82c0,1.65,1.34,2.99,2.99,2.99M111.27,202.03c-2.92,0-5.28-2.36-5.28-5.28v-7.36c0-.81.11-1.56.34-2.24.22-.68.56-1.27,1.01-1.77.45-.5,1-.89,1.66-1.16.66-.27,1.42-.41,2.27-.41h3.02v-8.09c0-.94-.26-1.73-.78-2.37-.52-.64-1.27-.96-2.24-.96s-1.69.37-2.21,1.1c-.52.73-.78,1.63-.78,2.69l-2.26.34c0-.87.11-1.69.34-2.44.22-.75.55-1.4.99-1.95.44-.55.99-.98,1.65-1.3.66-.32,1.42-.47,2.27-.47s1.64.14,2.31.43c.66.29,1.22.68,1.66,1.18.45.5.78,1.09,1.01,1.77.22.68.34,1.42.34,2.21v20.52c0,.81-.11,1.56-.34,2.24-.22.68-.56,1.27-1.01,1.77-.45.5-1,.88-1.66,1.16-.66.27-1.43.41-2.31.41M103.96,172.81c-.31-.08-.67-.12-1.1-.12-.98,0-1.73.33-2.24.98-.52.65-.78,1.45-.78,2.38v25.98h-2.29v-25.8c0-.81.11-1.56.34-2.24.22-.68.56-1.27,1.01-1.77.45-.5,1-.89,1.66-1.16s1.43-.41,2.31-.41c.37,0,.72.03,1.07.08.35.05.66.13.95.23l-.92,1.86ZM88.58,172.35c-.98,0-1.73.33-2.24.98-.52.65-.78,1.45-.78,2.38v10.78h3.02c.96,0,1.69-.32,2.21-.95.52-.63.78-1.42.78-2.38v-7.82c0-1.65-1.34-2.99-2.99-2.99M88.58,170.3c2.92,0,5.28,2.36,5.28,5.28v7.36c0,.81-.11,1.56-.34,2.24-.22.68-.56,1.27-1.01,1.77-.45.5-1,.89-1.66,1.16-.66.27-1.42.41-2.27.41h-3.02v8.09c0,.94.26,1.73.78,2.37.52.64,1.27.96,2.24.96s1.69-.37,2.21-1.1c.52-.73.78-1.63.78-2.69l2.26-.34c0,.88-.11,1.69-.34,2.44-.22.75-.55,1.4-.99,1.95-.44.55-.99.98-1.65,1.3-.66.32-1.42.47-2.27.47s-1.64-.14-2.31-.43c-.66-.28-1.22-.68-1.66-1.18-.45-.5-.78-1.09-1.01-1.77-.22-.68-.34-1.42-.34-2.21v-20.52c0-.81.11-1.56.34-2.24.22-.68.56-1.27,1.01-1.77.45-.5,1-.89,1.66-1.16.66-.27,1.43-.41,2.31-.41M79.42,202.03h-2.29v-25.68c0-.94-.26-1.73-.78-2.38-.52-.65-1.26-.98-2.21-.98h-3.02v29.04h-2.29v-31.08h5.31c.85,0,1.61.14,2.27.41.66.27,1.22.66,1.66,1.16.45.5.78,1.09,1.01,1.77.22.68.34,1.42.34,2.21v25.52ZM59.91,172.35c-.98,0-1.73.33-2.24.98-.52.65-.78,1.45-.78,2.38v10.78h3.02c.96,0,1.69-.32,2.21-.95.52-.63.78-1.42.78-2.38v-7.82c0-1.65-1.34-2.99-2.99-2.99M59.91,170.3c2.92,0,5.28,2.36,5.28,5.28v7.36c0,.81-.11,1.56-.34,2.24-.22.68-.56,1.27-1.01,1.77-.45.5-1,.89-1.66,1.16-.66.27-1.42.41-2.27.41h-3.02v8.09c0,.94.26,1.73.78,2.37.52.64,1.27.96,2.24.96s1.69-.37,2.21-1.1c.52-.73.78-1.63.78-2.69l2.26-.34c0,.88-.11,1.69-.34,2.44-.22.75-.56,1.4-.99,1.95-.44.55-.99.98-1.65,1.3-.66.32-1.42.47-2.27.47s-1.64-.14-2.31-.43c-.66-.28-1.22-.68-1.66-1.18-.45-.5-.78-1.09-1.01-1.77-.22-.68-.34-1.42-.34-2.21v-20.52c0-.81.11-1.56.34-2.24.22-.68.56-1.27,1.01-1.77.45-.5,1-.89,1.66-1.16.66-.27,1.43-.41,2.31-.41M50.93,171.03h-2.29v-7.48c0-1.47-1.19-2.66-2.66-2.66-1.08,0-2.02.09-2.81.27-.79.18-1.45.49-1.97.93-.52.44-.9,1.03-1.14,1.79-.24.75-.37,1.7-.37,2.84v28.58c0,.67.11,1.29.34,1.85.22.56.53,1.05.92,1.47.39.42.85.74,1.39.98.54.23,1.13.35,1.79.35.69,0,1.31-.12,1.86-.37.55-.24,1.02-.58,1.42-.99.4-.42.7-.91.92-1.47.21-.56.32-1.17.32-1.82v-13.98h-3.88v-2.05h6.17v16.06c0,.98-.18,1.87-.53,2.69-.36.81-.84,1.52-1.45,2.11-.61.59-1.33,1.05-2.15,1.37-.82.33-1.71.49-2.64.49s-1.88-.17-2.7-.52c-.82-.35-1.54-.81-2.14-1.4-.6-.59-1.07-1.29-1.4-2.11-.34-.81-.5-1.69-.5-2.63v-27.6c0-.67.02-1.36.05-2.08.03-.71.12-1.39.26-2.05.14-.65.38-1.27.7-1.85.33-.58.78-1.09,1.36-1.53.58-.44,1.32-.78,2.23-1.02.91-.24,2.02-.37,3.34-.37h.69c2.7,0,4.89,2.19,4.89,4.89v7.29Z"/>
  <g>
    <path class="st0" d="M239.62,195.18h2.13c.49,0,.86.11,1.11.32.25.21.37.51.37.89,0,.21-.03.39-.09.53s-.14.25-.22.34c-.08.09-.17.15-.25.18-.08.04-.14.06-.18.07h0c.07.02.14.04.22.07.08.03.15.09.22.16.07.07.12.17.17.28.04.12.07.26.07.44,0,.26.02.5.06.72s.1.37.18.46h-.84c-.06-.1-.09-.2-.1-.32-.01-.12-.02-.23-.02-.34,0-.2-.01-.38-.04-.53s-.07-.27-.14-.37-.16-.17-.27-.22-.26-.07-.44-.07h-1.15v1.84h-.78v-4.46ZM240.4,197.21h1.28c.25,0,.44-.06.57-.18.13-.12.19-.3.19-.53,0-.14-.02-.26-.06-.35-.04-.09-.1-.16-.17-.21s-.16-.08-.25-.1c-.09-.02-.19-.03-.29-.03h-1.27v1.39Z"/>
    <path class="st0" d="M241.51,201.96c-2.51,0-4.55-2.04-4.55-4.55s2.04-4.55,4.55-4.55,4.55,2.04,4.55,4.55-2.04,4.55-4.55,4.55ZM241.51,193.9c-1.93,0-3.51,1.57-3.51,3.51s1.57,3.51,3.51,3.51,3.51-1.57,3.51-3.51-1.57-3.51-3.51-3.51Z"/>
  </g>
</svg>